 <svg xmlns="http://www.w3.org/2000/svg" xml:space="preserve" viewBox="0 0 841.89 595.28">
            <path
              d="M4.01 257.03c-.65-.68-2.52-1.13-1.3-2.46.15-.17 5.38.69 5.87.68 2.82-.07 1.9-.48 1.56-1.9 1.03-.23.76-.59 1.52-.83 1.29-.41 1.92-.08 3.13-.33 1.88-.4 3.56-1.7 5.6-2.11.12-.78.02-1.57.07-2.35 1.34.09 2.62.26 3.97.19-.25 1.21 2.48 1.36 5.01 1.51 3.97.24 3.2-1.03 4.03-2.08.79-.99.5-.5 1.94-1.18 1.3-.61 2.5-.66 2.81-1.67 2.71.19 4.58-.62 5.47-1.61 3.17.44 5.25.18 6.13 1.74.72-.26 1.81-.29 2.63-.41.1.88 1.23 1.53 3.35 1.13 1.24 1.35 5.64.28 4.42-.81 2.62.42 5.47-.13 6.87 1.17.44.41-.39 1.76-.18 1.85 1.12.47 3.19-.22 4.3-.38-.13.75-.04 1.56.98 2.18 1.28.77-.72 1.61 2.36 2.49 3.76 1.07 4.66-.24 8.22-.61 1.61-.17 3.53.38 5.08-.16 1.11.98 2.47.28 3.78.58 1.13.26 1.18.49 2.3.96 1.17.49 1.43.38 2.45 1.08 1.01.69.86 1.32 2.39 1.95 1.45-.37 2.96-.69 4.52-.97 2.04 2.92 7.61 4.41 14.89 3.68 0 0 2.69 3.26 6.81 2.86 4.33-.42 1.64-1.96 3.7-3.15.69-.4 2.37-.1 3.32-.66.69-.4-.14-1.2.34-1.58.8-.64 5.85-2.31 7.71-2.54 2.79-.35.95.14 2.84.29 1.32.1 1.57 1.11 3.46.03 1.35.93 3.26.67 5.44.98.28-1.48 2.18-.46 3.97-.73 2.03-.3 5.16-1.54 5.75-2.35.88-1.21-.32-1.23 2.09-2.01 2.01-.65 2.95-.61 4.2-1.86 1.99 1.09 6.38.3 9.09.32 1.27.01 1.73-.43 2.95-.16.61.14.59.59 1.08.7 1.48.33.11.54 2.67.55 1.13 0 2.61-.51 3.89-.54-.18 1.16.25 1.32 1.96 2.03.65.27 1.68.12 2.44.48.44.21-.39.72.28.99.97.39 2.05.1 3.05.38 1.58.43.99.45 1.98.92 1.12.52.73 1.15 3.29 1.09-1.27.03.91 4.54 1.29 5.04 1.83-.07 3.29-.85 5.13-.87.48 0 1.64.51 2.33.59 3.8.41 2.83.31 4.07 1.86.39.48 1.49.33 1.88.86.26.35-.41 1.04-.2 1.48.42.88 2.58 1.48 1.64 2.39.45-.44 2.13 1.64 2.16 1.68.82 1.14 1.04 2.2.9 3.38 1.35.04 2.5.24 3.8.39.03-.21.52-.51.5-.79 2.16.29 3.67.22 5.87-.26-.01 1 .98 1.59 3.38 1.36.1.73-.77 2.29 2.1 1.81-.03 1.1.97 1.27 3.3 1.41.4-.17.89-.19 1.27-.28.2-.04 2.42 5.53 2.52 6.17 1.43-.71 3.67-1.23 4.57-2.11.62-.61-.59-1.82 1.31-2.38.92-.27 2.34.21 2.99-.03.7-.26.59-1.08 1.3-1.26 1.54-.4 2.85.27 4.79-.16.09.22.91.62.95.91.62-.12 1.99-.2 2.65-.46-.38.9.74.86 2.42.73 2.12-.16 1.47-.48 2.66-1.09 1.09-.57.72-.52 1.77-.9 1.26-.46 3.36-.03 3.32-1.24 2.81-.03 6.53.17 8.5-.62-.99.4 4.11 1.72 6.03 1 2.11-.8 1.83-2.79 2.49-3.85 1.26.64 3.32.8 3.63-.18 1.77-.01 3.29-.44 4.23-.99.3.81 2.86.97 4.08 1.28 3.03.76 4.16.84 6.24-.66.21.64.96 1.31 2.43 1.58 1.57-.75 5.81-1.2 5.43-2.18 2.35 1.22 3.5-.54 5.67-.74.71.92 2.06 1.86 4.59 1.72-.44 1.11.59 1.85 3.35 1.66-.68 1.22 2.53.98 4.41 1.13-.16-.01 2.82.5 2.56.44 1.06.25 1.84.24 2.76.91.87-.4 1.19-.94 1.05-1.47 3.84.99 4.13-.12 6.39 1.92.01.01 3 .71 3.36.8.78.19 1.35-.17 2.1.1.67.24.92.95 1.54 1.27 5.03 2.62 12.96.21 9.08-2.71 2.05-.44 2.91-2.19 4.53-3.01 1.5.57 3.29.43 4.71-.06 2.31 1.4 9.02.11 12.07.95 1.98-2.38 2.34-2.23 7.68-3.19.03-.65-.7-2.71.4-3.22 1.32-.62 3.87.21 4.62-.86 2.66 1.11 5.48-.4 5.01-1.56 1.4-.03 2.8-.24 3.98-.54.66.93 1.98.39 2.99.8.75.3 1.43 1.09 2.5 1.26 2.02.31 4.52-1.38 5.83-1.4 1.54-.02 2.58 1.1 3.02 1.7.58.78.59 1.8 3.35 2.07-.06-.01 3.36-.24 3.67-.25 1.16-.05 3.23-.01 4.33-.28-.07.58.5 1.05 1.67 1.18-.19.53-.56 1.07-.94 1.59-.12.15 5.4 1.69 5.84 1.74 2.25.24 3.94-.3 5.69-.7.12.55.12 1.15.41 1.69 6.28-.25 13.08-.01 18.1 1.31-.24-.01 4.53-1.13 4.66-1.16 2.94 1.28 2.21.72 5.77 1.15.73-4.13 9.73-3.67 14.11-.77.06-.02.13-1.52.11-1.68 1.45-.08 2.9.85 4.14.55.55-2.81.03-3.6 6.44-3.52-.81-1.49 1.47-3.06 1.31-4.07 2.1.31 5.37.21 7.17.49-.08-1.27.5-1.8-.81-3.04 1.11.28 2.87.74 4.21 1.04-.51-1.05.31-2.67.34-3.8 0-.02 9.48-.12 10.28-.09.23-1.13 1.4-3.99 5.62-2.53.01-2.59 4.65-.91 8.26-1.1 3.29-.17 5.51-2.22 8.02-.25.52-.39 2.63-.86 3.07-1.15-.13.05 1.68 2.37 1.91 2.51 1.98 1.15 1.45.52 3.78 1.1.75.19 3.19-.15 4.41.12 2.06.45.36 2.62 5.05 1.73.28 1.83 4.39 2.11 6.3 3.47 1.84 1.31 1.82 3.26 5.03 4.23.17-.35.96-.78 1.21-1.16 3.09 1.37 3.59.25 6.05-.29 4.45-.98 4.69-1.46 10.23-1.32 1.21-1.16 1.03-2.51 1.11-3.78 7.19-.37 4.3-1.38 6.08-3.78 1.17-1.58.73-.83 4.05-1.44 2.06-.38 4.71-.2 6.82-.59 2.09-.38 3.3-1.27 5.56-1.53 2.51-.28 4 .46 6.7.69 2.34.21 4.95-.26 7.07.2 1.16.25.44 1.34 2.46 1.66 1.55.24 4.58-.35 5.93-.44.35 1.13 2.93 4.97 1.87 5.85 4.57-.45 3.52.97 5.54 1.85 1.61.7 4.96 1.19 6.74 1.66 1.43-1.35 3.04-2.37 6.62-1.85.02-.99 1.54-1.43 2.31-1.88-.73.43 4.27-1.42 3.39-1.17-.91.25 3.71-1.44 2.96-.93.43-.29 1.06-1.56 1.62-1.87.66-.36 3.18-1.21 3.84-1.49 1.89-.83 2.45-1.39 5.15-2.2 2.3-.69 7.27-1.74 7.26-3.14 3.73.26 7.54-1 10.42-1.18-.7.04 4.11.39 4.26.39-.83-.02 4.31-.72 3.9-.68 2.46-.22 6.35.58 9.38.45 1.25-.06 2.21-1.03 3.41-1.11 1.3-.09 1.37.44 2.36.45 1.77.02 3.04.37 4.84.05-.06.36.32.83.21 1.16 2.92.4 5.17-.6 8.08-.48-.08 0 3.19 1.04 3.92 1.15 2.54.4 8.79.48 11.98.29-.23.41.08.91.2 1.31 2.71.24 7.07-.36 6.77 1.42 1.9.04 1.98-.04 3.1.54.24.13 1.3.92 1.35 1.08.25.9-1.76 1.75-.24 2.67.75.46 2.62.63 3.49 1.08-.13-.07.24 1.09.48 1.3.3.26 2.39.64 2.9.92.44.24-1.19.84-.61 1.1.72.32 2.92.57 3.36.8 3.32 1.77 2.02 1.18 2.64 3.06.24.73 2 1.84 1.86 2.52-.24 1.17-4.63 2.67.38 2.65-2.05.71-4.24 1.53-4.82 2.59 1.89.25 4.05.27 6.02.23-.29.27-.29.83-.76 1.17 1.94.39 3.59.1 4.78-.66.19.04 1.12.35 1.24.36 2.27-1 5.87-1.47 3.85-3.23 3.78-.21 4.62-1.87 1.26-2.64 5.95.36 2.63-1.89 1.51-3.02 2.75-.37 2.59-1.51 2.27-2.6 1.18.01 3.57.02 4.45.07 2.51.84 7.12 2.68 10.59 2.53-.39.28-.67.9-.99 1.11 3.27-.49 7.46-.93 7.34 1.19 7.13.13 12.65-4.55 9.46-6.99 1.11.39 1.75.21 2.8.41.82-1.1.44-2.3.59-3.47-.04.3 3.26-.1 3.66-.25 1.09-.39-.01-1.23.5-1.68 1.59-1.4 3.53-4.45 8.55-2.39 1.6-.61 1.49-1.62 1.32-2.59 3.06-.36 6.26-.23 9.45-.24l.03 101.93-841.12.22 3.3-94.5z"
              style="fill: #405f46" />
          </svg>